<svg id="HSBC_MASTERBRAND_INSURANCE_WW_CMYK" xmlns="http://www.w3.org/2000/svg" viewBox="0 0 810.23 425.2"><defs><style>.cls-1{fill:#fff;}.cls-2{fill:none;}.cls-3{fill:#db0011;}</style></defs><title>HSBC_EXPAT_RGB</title><rect class="cls-1" x="212.6" y="141.73" width="141.73" height="141.73"/><rect class="cls-2" width="810.23" height="425.2"/><polygon class="cls-3" points="425.2 212.6 354.33 141.73 354.33 283.46 425.2 212.6"/><polygon class="cls-3" points="283.46 212.6 354.33 141.73 212.6 141.73 283.46 212.6"/><polygon class="cls-3" points="141.73 212.6 212.6 283.46 212.6 141.73 141.73 212.6"/><polygon class="cls-3" points="283.46 212.6 212.6 283.46 354.33 283.46 283.46 212.6"/><path d="M487.4,175.72H461.71v25.36H448.82V141.73h12.89V166H487.4v-24.3h12.89v59.35H487.4Z"/><path d="M531.15,202.15c-12.8,0-23.31-5.09-23.56-19.29h12.89c.16,6.32,3.86,10.1,10.92,10.1,5.25,0,11.16-2.63,11.16-8.54,0-4.6-4-6.07-10.67-8l-4.27-1.23c-9.36-2.71-18.63-6.33-18.63-17,0-13.21,12.31-17.65,23.56-17.65,11.57,0,21.5,4,21.59,17.16H541.25c-.49-5.42-3.61-8.54-9.69-8.54-4.76,0-9.52,2.55-9.52,7.8,0,4.35,3.94,5.66,12.31,8.29l4.93,1.56c10.18,3.2,16.58,6.73,16.58,16.58C555.86,197,542.81,202.15,531.15,202.15Z"/><path d="M563.12,141.73h20.6c6.49,0,9.12.17,11.66.74,7.23,1.64,12.64,6.32,12.64,14.29,0,7.63-4.84,11.57-11.82,13.38,8,1.47,14,5.58,14,14.36,0,13.46-13.3,16.58-23.73,16.58H563.12Zm20.69,24.71c5.66,0,11.41-1.15,11.41-8,0-6.16-5.42-7.8-10.59-7.8h-9v15.84ZM585,192.22c6,0,11.9-1.4,11.9-8.62,0-7.06-5.09-8.7-11.16-8.7H575.6v17.32Z"/><path d="M643.74,202.15c-19.12,0-27.74-12.23-27.74-30.29,0-17.9,9.52-31.28,28.4-31.28,11.82,0,23.32,5.26,23.64,18.72h-13.3c-.65-5.91-4.59-9-10.34-9-11.57,0-15.1,12.48-15.1,22s3.53,20.44,14.69,20.44c5.83,0,10.1-3.12,11-9.11h13.38C666.89,197.06,656.06,202.15,643.74,202.15Z"/><path d="M448.94,224.12h35.18v4.43H454.27v21.81H483v4.43h-28.7V279h31.08v4.43H448.94Z"/><path d="M508.47,265.37l-13.2,18h-5.66l16.07-21.16L490.51,242h6.24l12.3,17.05L521.59,242h5.66l-15.33,20.25L528,283.41h-6.48Z"/><path d="M553.33,284.06c-6.32,0-9.84-2.46-13.29-7.54V299h-5V254.38c0-4.1-.08-8.29-.33-12.38h5.09l.24,7.7c3.2-5.82,7.63-8.44,14.27-8.44,12,0,17.22,10,17.22,20.83C571.53,273.16,565.55,284.06,553.33,284.06Zm.32-38.87c-9.92,0-13.61,9-13.61,17.63,0,8.2,3,17.22,12.63,17.22,9.92,0,13.53-8.69,13.53-17.38C566.2,254.62,563.25,245.19,553.65,245.19Z"/><path d="M604.66,277.42c-3.44,5.25-7.71,6.89-13.86,6.89-7.54,0-14.43-3.77-14.43-12.14,0-13.2,15.42-13.61,25.58-13.61h2.14c.08-1,.08-1.89.08-2.87,0-7.05-2.79-10.66-10.09-10.66-5.33,0-8.94,1.72-9.59,7.63h-4.92c.08-8.29,7.21-11.4,14.51-11.4,10.25,0,15,4.26,15,14.51v12.3a135.93,135.93,0,0,0,.82,15.34h-4.6C605.15,281.44,604.91,279.39,604.66,277.42Zm-4.51-15.33c-6.89,0-18.7.41-18.7,9.92,0,5.74,5,8.69,10.25,8.69,11.81,0,12.55-9.35,12.55-18.45C602.85,262.17,601.54,262.09,600.15,262.09Z"/><path d="M633,283.73c-6,0-8.77-2.87-8.77-8.85v-29.2h-8.21V242h8.21v-8.53l5-2.22V242h9.26v3.68h-9.26v27c0,4.68.65,6.89,5.82,6.89a23.38,23.38,0,0,0,3.77-.49v4.26A45.55,45.55,0,0,1,633,283.73Z"/></svg>