<svg width="188" height="39" viewBox="0 0 188 39" fill="none" xmlns="http://www.w3.org/2000/svg">
<path d="M45.3019 14.3054V13.8125H39V14.3054C39.6415 14.3054 40.283 14.5708 40.283 15.0258V36.79C40.283 37.2829 39.6415 37.5104 39 37.5104V38.0033H45.3019V37.5104C44.6604 37.5104 44.0189 37.245 44.0189 36.79V15.0258C44.0189 14.5329 44.6604 14.3054 45.3019 14.3054Z" fill="#00204E"/>
<path d="M116.245 33.643L116.434 36.6384C117.981 37.3209 120.057 37.8138 121.83 37.8138C127.113 37.8138 129.453 35.3872 129.453 33.1122C129.453 27.6522 119.189 28.9034 119.189 24.8463C119.189 23.3676 120.887 22.5713 122.66 22.5713C125.491 22.5713 127.151 23.0263 127.679 24.9601H128.245L128.208 22.4576C126.472 21.7751 124.585 21.4338 123.151 21.4338C118.283 21.4338 116.283 23.9363 116.283 25.8701C116.283 31.4438 125.943 30.1547 125.943 34.2118C125.943 35.4251 124.962 36.6763 122.359 36.6763C119.113 36.6763 117.453 35.6905 116.698 33.5672L116.245 33.643Z" fill="#00204E"/>
<path d="M86.9245 21.9646V22.4575C87.9434 22.4575 88.5849 23.0263 88.2075 23.7846L83.3773 32.8467L78.5849 23.6708C78.3585 22.9504 79 22.4575 79.9056 22.4575V21.9646H72.2453V22.4575C73.2264 22.4575 73.8679 22.8367 74.5849 24.0121L82.3585 37.8138L90.3962 23.7088C91.0377 22.6471 91.8679 22.4575 92.4717 22.4575V21.9646H86.9245Z" fill="#00204E"/>
<path d="M69 36.7901V29.5101V26.2113C69 23.2159 65.7547 21.5097 62.434 21.5097C59.6038 21.5097 57.0377 23.1022 56.0566 23.8984V21.6234C56.0566 21.3201 55.9056 21.2443 55.7924 21.2443C53.717 22.0026 52.8113 22.3438 50.7358 23.0643V23.4434C51.8302 23.5193 52.1698 24.1259 52.283 24.8843V36.7522C52.283 37.283 51.6415 37.4726 51 37.4726V37.9655H57.3396V37.4726C56.6981 37.4726 56.0566 37.2072 56.0566 36.7522V25.3013H56.0943V25.2255C56.9245 24.4293 58.6981 23.4813 60.5472 23.4813C64.434 23.4813 65.2264 25.5288 65.2264 27.4247V36.7901C65.2264 37.283 64.5849 37.5105 63.9434 37.5105V38.0034H70.283V37.5105C69.6792 37.5105 69 37.3209 69 36.7901Z" fill="#00204E"/>
<path d="M102.736 22.7227C105.151 22.7227 107.528 23.974 107.528 27.2348H97.4528C97.7924 24.9219 99.5283 22.7227 102.736 22.7227ZM107.717 35.6902C106.698 36.0315 105.528 36.1831 104.208 36.1831C102.321 36.1831 100.66 35.6144 99.2642 34.3252C97.8679 33.0361 97.3019 30.9506 97.2264 29.434V28.524H111.566C111.566 23.519 107 21.5094 103.264 21.5094C96.5094 21.5094 93.2641 25.9456 93.1887 29.6236C93.1509 30.9127 93.566 32.4673 94.3208 33.6807C95.1509 35.0457 96.283 36.1073 97.8302 36.8657C99.3396 37.624 101.038 38.0032 102.925 38.0032C104.66 38.0032 106.17 37.7757 107.453 37.3586C108.736 36.9415 110.019 36.1831 111.34 35.1215L111.302 33.8702C109.943 34.7802 108.736 35.349 107.717 35.6902Z" fill="#00204E"/>
<path d="M158.472 22.7227C160.887 22.7227 163.264 23.974 163.264 27.2348H153.189C153.528 24.9219 155.264 22.7227 158.472 22.7227ZM163.453 35.6902C162.434 36.0315 161.264 36.1831 159.943 36.1831C158.057 36.1831 156.396 35.6144 155 34.3252C153.566 33.0361 153.038 30.9506 152.962 29.434V28.524H167.302C167.302 23.519 162.736 21.5094 159 21.5094C152.245 21.5094 149 25.9456 148.925 29.6236C148.887 30.9127 149.302 32.4673 150.057 33.6807C150.887 35.0457 152.019 36.1073 153.528 36.8657C155.038 37.624 156.736 38.0032 158.623 38.0032C160.359 38.0032 161.868 37.7757 163.151 37.3586C164.434 36.9415 165.717 36.1831 167.038 35.1215L167 33.8702C165.679 34.7802 164.472 35.349 163.453 35.6902Z" fill="#00204E"/>
<path d="M146.396 36.0695L146.321 35.5008C145.792 35.8041 144.585 36.335 143.528 36.4108C142.17 36.4487 139.528 36.0695 139.528 32.9225V23.2916H145.679V21.8887H139.604V18.7795H135.755V21.8887H133.264L133.302 23.2916H135.755V32.8087C135.755 32.8087 135.755 32.8087 135.755 32.8466V32.9604C135.755 36.1833 138.359 37.8137 141.868 37.8137C143.075 37.8137 144.396 37.3966 145.151 36.9037C145.566 36.6762 145.981 36.4108 146.396 36.0695Z" fill="#00204E"/>
<path d="M187.981 33.8326C186.887 34.553 185.943 35.0838 185.075 35.463C184.132 35.8043 183 36.0318 181.642 36.0318C176.962 36.0318 174.66 32.8088 174.66 29.3205C174.66 26.2872 176.547 22.7609 180.887 22.7609C183.604 22.7609 186.132 24.2397 187.113 26.0218H187.981V23.0263C187.943 22.9884 185 21.4338 181.113 21.4338C173.642 21.4338 170.623 26.4009 170.623 29.7755C170.623 30.458 170.736 31.1784 170.925 31.8609H170.887C170.962 32.0505 171 32.2401 171.113 32.4297C171.415 33.2638 171.906 34.098 172.547 34.8563C173.226 35.6526 174.057 36.3351 175.075 36.8659C176.283 37.5105 177.604 37.8518 179.038 37.9655C179.491 38.0034 179.981 38.0413 180.509 38.0413C182.019 38.0413 183.264 37.7759 184.283 37.3588H184.321C185.528 36.9418 186.736 36.2213 187.981 35.1597V33.8326Z" fill="#00204E"/>
<path d="M23.717 12.0683H26.6981C25.6415 7.89744 21.8302 4.67453 17.0377 3.87828V5.54661C20.283 6.34286 22.849 8.88328 23.717 12.0683ZM14.2453 23.5191C9.6415 23.2158 5.94338 19.5758 5.6415 14.9879H14.2453V23.5191ZM15.4151 13.8124V6.68411V2.43744V0.920776H14.2453V3.68869C8.6981 3.91619 4.13206 7.40453 2.96225 12.0304H5.94339C6.92452 8.31453 10.2453 5.50869 14.2453 5.24328V13.7745H0.0943298V14.9499H2.66037C2.99999 20.4099 8.01886 24.8083 14.2453 25.0358V27.8037H15.4151V26.4387V22.192V14.912H24.0189C23.7547 18.9312 20.8868 22.2299 17.0755 23.1779V24.8462C22.5094 23.9741 26.6604 19.8791 27 14.912H29.566V13.7366H15.4151V13.8124Z" fill="#4891DC"/>
</svg>
