<?xml version="1.0" encoding="utf-8"?>
<!-- Generator: Adobe Illustrator 26.2.1, SVG Export Plug-In . SVG Version: 6.00 Build 0)  -->
<svg version="1.1" id="Artwork" xmlns="http://www.w3.org/2000/svg" xmlns:xlink="http://www.w3.org/1999/xlink" x="0px" y="0px"
	 viewBox="0 0 1190.55 270.36" style="enable-background:new 0 0 1190.55 270.36;" xml:space="preserve">
<style type="text/css">
	.st0{fill:#04AA9D;}
	.st1{fill:#587690;}
</style>
<g>
	<path class="st0" d="M793.41,95.46c-28.47-4.6-50.32-26.94-54.88-55.43c-0.07-0.44-0.15-0.66-0.24-0.66
		c-0.08,0-0.16,0.22-0.23,0.66c-4.56,28.49-26.4,50.83-54.88,55.43c-0.44,0.07-0.66,0.15-0.66,0.24c0,0.08,0.22,0.17,0.66,0.24
		c28.48,4.61,50.32,26.94,54.88,55.43c0.07,0.45,0.15,0.66,0.23,0.66c0.09,0,0.17-0.21,0.24-0.66c4.56-28.49,26.4-50.82,54.88-55.43
		c0.44-0.08,0.66-0.16,0.66-0.24C794.07,95.62,793.85,95.53,793.41,95.46 M757.3,95.84c-9.62,1.69-17.2,9.69-18.87,19.32
		c-0.02,0.15-0.08,0.23-0.13,0.23c-0.05,0-0.11-0.08-0.13-0.23c-1.67-9.63-9.25-17.63-18.87-19.32c-0.14-0.02-0.21-0.09-0.22-0.14
		c0.01-0.05,0.08-0.11,0.22-0.14c9.62-1.69,17.2-9.69,18.87-19.32c0.03-0.15,0.08-0.23,0.13-0.23c0.05,0,0.11,0.08,0.13,0.23
		c1.67,9.62,9.25,17.63,18.87,19.32c0.14,0.02,0.22,0.09,0.23,0.14C757.52,95.75,757.45,95.81,757.3,95.84"/>
	<path class="st0" d="M425.13,128.52l-18.92,44.8l-18.96-44.8h-17.56l27.51,62.23c-3.49,11.77-12.89,16.06-19.86,16.06v14.43
		c9.49-0.39,18.15-3.5,24.67-9.88c4.99-4.9,7.44-9.55,11.23-18.11c7.91-17.86,28.67-64.72,28.67-64.72H425.13z"/>
	<path class="st0" d="M185.45,126.41c-20.06,0-36.32,16.26-36.32,36.32c0,20.06,16.26,36.32,36.32,36.32
		c20.06,0,36.33-16.26,36.33-36.32C221.78,142.66,205.52,126.41,185.45,126.41 M185.45,184.69c-11.72,0-21.23-9.84-21.23-21.97
		c0-12.13,9.51-21.96,21.23-21.96c11.73,0,21.24,9.83,21.24,21.96C206.69,174.85,197.18,184.69,185.45,184.69"/>
	<path class="st0" d="M335.98,126.4c-20.75,0-36.32,15.58-36.32,36.32c0,20.75,15.57,36.32,36.32,36.32c13.24,0,25.55-6.42,32.35-17
		l-12.8-7.13c-3.76,5.21-9.76,9.85-19.21,9.85c-10.46,0-19.09-6.67-21.16-16.75h56.76c0.26-1.75,0.4-3.47,0.4-5.29
		C372.31,141.98,356.73,126.4,335.98,126.4 M315.72,155.39c2.67-8.75,10.56-14.71,20.17-14.71c9.69,0,17.13,5.6,20.09,14.71H315.72z
		"/>
	<path class="st0" d="M113.49,126.39c-9.45-0.01-17.94,4.55-22.93,11.59c-4.24-6.96-11.59-11.6-20.06-11.59
		c-7.22,0-13.76,3.6-17.56,9.23v-7.79h-4.87c-2.83,0-5.02,0.78-6.92,2.67c-1.75,1.75-2.68,3.93-2.68,7.02v59.6H53.7v-41.35
		c0-8.58,5.52-14.98,14.08-14.98c8.58,0,14.74,6.4,14.74,14.98v41.35h15.25v-41.35c0-8.58,5.51-14.98,14.08-14.98
		c8.57,0,14.1,6.4,14.1,14.98v41.35h15.25v-43.85C141.18,138.18,128.77,126.39,113.49,126.39"/>
	<path class="st0" d="M264.81,126.39c-8.28-0.01-15.62,3.57-20.61,9.27v-7.83h-4.88c-2.83,0-5.01,0.78-6.92,2.67
		c-1.76,1.75-2.68,3.93-2.68,7.02v59.6h15.24v-40.45c0-9.07,6.16-15.88,15.7-15.88c9.56,0,16.44,6.81,16.44,15.88v40.45h15.22
		v-43.85C292.32,138.4,279.92,126.39,264.81,126.39"/>
	<path class="st1" d="M544.2,126.41c-20.06,0-36.32,16.26-36.32,36.32c0,20.06,16.26,36.32,36.32,36.32
		c20.06,0,36.32-16.26,36.32-36.32C580.53,142.66,564.27,126.41,544.2,126.41 M544.2,184.69c-11.73,0-21.24-9.84-21.24-21.97
		c0-12.13,9.51-21.96,21.24-21.96c11.73,0,21.23,9.83,21.23,21.96C565.44,174.85,555.93,184.69,544.2,184.69"/>
	<path class="st1" d="M672.14,126.41c-9.31,0-17.59,3.59-22.71,9.16v-7.74h-4.88c-2.82,0-5.02,0.78-6.91,2.67
		c-1.76,1.75-2.69,3.93-2.69,7.02v83.68h15.24v-30.52c4.55,5.14,12.84,8.36,21.94,8.36c20.75,0,35.48-16.26,35.48-36.32
		C707.62,142.66,692.89,126.41,672.14,126.41 M671.3,184.69c-11.73,0-21.23-9.84-21.23-21.97c0-12.13,9.5-21.96,21.23-21.96
		c11.73,0,21.24,9.83,21.24,21.96C692.54,174.85,683.03,184.69,671.3,184.69"/>
	<path class="st1" d="M475.27,140.76c7.55,0,14.19,4,18,10.04l12.22-7.92c-6.96-10.64-16.81-16.48-30.42-16.48
		c-20.06,0-36.33,16.26-36.33,36.32c0,20.06,16.27,36.33,36.33,36.33c13.46,0,23.19-5.68,30.2-16.14l-11.89-7.96
		c-3.83,5.95-10.63,9.75-18.11,9.75c-11.84,0-21.43-9.84-21.43-21.97S463.43,140.76,475.27,140.76"/>
	<path class="st1" d="M602.67,135.62v-7.79h-4.87c-2.83,0-5.02,0.78-6.92,2.67c-1.76,1.75-2.69,3.93-2.69,7.02v59.6h15.24v-40.75
		c0-5.31,1.41-8.94,4.11-11.63c2.35-2.36,5.49-3.75,9.48-3.75c3.07,0,6.09,1.29,8.31,3.11l5.91-14.24
		c-2.81-2.07-7.01-3.49-11.01-3.48C613.02,126.39,606.89,129.22,602.67,135.62"/>
	<g>
		<rect x="817.52" y="67.52" class="st1" width="4.52" height="163.48"/>
	</g>
	<g>
		<polygon class="st0" points="1152.09,128.05 1139.04,128.05 1100.64,157.35 1100.64,101.63 1091.61,101.63 1091.61,197.16 
			1100.64,197.16 1100.64,163.96 1139.04,197.16 1152.09,197.16 1109.55,160.62 		"/>
		<path class="st0" d="M1051.68,126.42c-10.34,0-19.72,4.2-24.45,10.6v-9.09c-1.93,0-0.02,0-2.77,0c-2.49,0-6.15,1.82-6.15,6.64
			v62.59h9.04v-37.73c0-8.03,1.91-13.63,6.52-18.13c4.18-4.08,10.01-6.44,16.45-6.44c6.48,0,11.8,2.19,15.51,6.07
			c3.75,3.93,5.86,9.1,5.86,17.05v39.18h9.04v-40.56c0-9.46-2.63-16.37-8.05-21.72C1067.49,129.75,1060.21,126.42,1051.68,126.42z"
			/>
		<path class="st0" d="M891.96,126.42c-11.91,0-21.79,5.25-28.12,13.45V101.4h-9.05v89.65c0,2.1,0.63,3.59,1.83,4.78
			c1.3,1.29,2.79,1.82,4.71,1.82h2.21v-12.5c6.31,8.44,16.32,13.87,28.42,13.87c20.05,0,35.65-16.25,35.65-36.3
			C927.6,142.67,912,126.42,891.96,126.42z M891.17,190.57c-14.99,0-27.14-12.47-27.14-27.85c0-15.38,12.15-27.85,27.14-27.85
			c15.32,0,27.14,12.14,27.14,27.85C918.3,178.44,906.48,190.57,891.17,190.57z"/>
		<path class="st0" d="M998.38,139.44c-6.34-8.12-16.25-13.03-28.12-13.03c-20.05,0-35.65,16.25-35.65,36.3
			c0,20.05,15.6,36.3,35.65,36.3c11.91,0,21.79-5.25,28.12-13.45v4.99c0,2.1,0.63,3.59,1.83,4.78c1.3,1.29,2.79,1.82,4.71,1.82h2.51
			v-69.37h-9.05V139.44z M971.05,190.57c-15.32,0-27.14-12.14-27.14-27.85c0-15.72,11.82-27.85,27.14-27.85
			c14.99,0,27.14,12.47,27.14,27.85C998.19,178.09,986.04,190.57,971.05,190.57z"/>
	</g>
</g>
</svg>
