<svg width="300" height="27" viewBox="0 0 300 27" fill="none" xmlns="http://www.w3.org/2000/svg">
<path d="M85.9613 19.1996C85.9613 23.6369 88.2857 26.1709 91.7723 26.1709C93.6213 26.1709 94.7573 25.4317 95.4966 24.2695L95.6556 25.8546H98.3225V12.6513C96.7898 12.1235 95.2327 11.912 93.3313 11.912C88.4429 11.912 85.9613 14.5527 85.9613 19.1996ZM95.4161 22.8453C94.6507 23.4273 93.7261 23.796 92.5901 23.796C90.0019 23.796 88.9183 21.8946 88.9183 19.2015C88.9183 16.2427 90.3182 14.3955 93.3294 14.3955C94.1472 14.3955 94.8079 14.4479 95.4161 14.5546V22.8453ZM298.046 7.71616V25.8584H299.895V7.4242C299.313 7.4242 298.522 7.58328 298.046 7.71616ZM84.8253 14.8428C84.9582 14.0774 85.0368 13.2576 85.0892 12.3612H80.4928V7.36806C79.5945 7.36806 78.4866 7.50094 77.5883 7.79102V21.6569C77.5883 24.8796 79.3849 26.1728 82.2109 26.1728C83.0287 26.1728 83.8746 26.068 84.6663 25.7498C84.8253 24.9844 84.9301 24.0861 85.0087 23.2944C84.3743 23.5321 83.5827 23.6912 82.7367 23.6912C81.3369 23.6912 80.4928 23.0306 80.4928 21.3144V14.8428H84.8253ZM106.772 11.912C105.372 11.912 103.338 12.2021 101.491 12.6513V25.8565H104.396V14.6051C105.187 14.4722 106.007 14.3936 106.694 14.3936C109.598 14.3936 110.285 15.3968 110.285 17.4835V25.8546H113.19V16.9819C113.19 13.7854 111.633 11.912 106.772 11.912ZM283.02 19.151C283.02 23.6669 285.344 26.1765 289.095 26.1765C290.573 26.1765 291.788 25.6226 292.686 24.8291L292.739 25.8584H294.455V12.6532C293.055 12.1254 291.681 11.9139 290.044 11.9139C285.316 11.9139 283.02 14.5022 283.02 19.151ZM292.606 23.2963C291.734 24.1422 290.626 24.6438 289.252 24.6438C286.374 24.6438 284.895 22.5571 284.895 19.151C284.895 15.612 286.507 13.5515 290.046 13.5515C290.996 13.5515 291.814 13.6563 292.608 13.8677V23.2963H292.606ZM125.049 12.1216C124.362 11.9888 123.649 11.9102 122.884 11.9102C117.997 11.9102 115.516 14.5508 115.516 19.1996C115.516 23.6369 117.84 26.1709 121.327 26.1709C123.228 26.1709 124.364 25.4055 125.104 24.1647L125.263 25.8546H127.93V7.36806C126.979 7.36806 125.949 7.44666 125.051 7.76482V12.1216H125.049ZM125.049 22.7929C124.258 23.4011 123.307 23.796 122.145 23.796C119.556 23.796 118.473 21.8946 118.473 19.2015C118.473 16.1903 119.847 14.3955 122.725 14.3955C123.49 14.3955 124.284 14.5022 125.049 14.6594V22.7929ZM20.1541 12.2545C20.1129 11.2907 19.8415 10.3344 19.3437 9.46974L14.9401 1.84342C14.6051 1.26138 14.3731 0.638178 14.2439 0L14.0605 0.318153C12.9713 2.20462 12.9713 4.53088 14.0605 6.41921L17.5827 12.5203C18.6719 14.4086 18.6719 16.733 17.5827 18.6213L17.3993 18.9395C17.2701 18.3013 17.0381 17.6781 16.7031 17.0961L13.4766 11.5097L11.418 7.94448C11.083 7.36245 10.8509 6.73924 10.7218 6.10106L10.5384 6.41921C9.4529 8.30006 9.44916 10.617 10.5271 12.4997L14.0605 18.6195C15.1497 20.5078 15.1497 22.8322 14.0605 24.7205L13.8771 25.0387C13.748 24.4005 13.5159 23.7773 13.1809 23.1953L8.77729 15.5689C8.1859 14.5471 7.91641 13.3943 7.96694 12.2545C3.25265 13.486 0 16.1004 0 19.1285C0 23.3394 6.29569 26.7548 14.0605 26.7548C21.8253 26.7548 28.121 23.3412 28.121 19.1285C28.121 16.1004 24.8684 13.486 20.1541 12.2545ZM40.8771 15.6606L39.451 15.0524C37.602 14.2608 36.5727 13.4672 36.5727 12.0936C36.5727 10.6937 37.6301 9.79538 39.9264 9.79538C41.141 9.79538 42.8309 10.0331 44.257 10.5608C44.5209 9.79538 44.7062 8.97567 44.7848 7.92015C43.2801 7.39239 41.6687 7.15471 39.9526 7.15471C35.6744 7.15471 33.5876 9.08235 33.5876 12.0936C33.5876 14.8933 35.2776 16.2932 37.7611 17.3749L39.1085 17.9551C41.592 19.0387 42.5951 19.7517 42.5951 21.2826C42.5951 22.8415 41.2215 23.6332 38.7661 23.6332C37.3138 23.6332 35.4124 23.2907 33.9339 22.6039C33.6438 23.4498 33.4847 24.189 33.4323 25.2707C34.9108 25.9576 36.6812 26.2739 38.8465 26.2739C43.3362 26.2739 45.6344 24.1871 45.6344 21.1497C45.6307 18.5933 44.2308 17.0886 40.8771 15.6606ZM241.638 21.7392V13.9744H246.232C246.337 13.4729 246.391 12.9451 246.417 12.3107H241.638V7.4242C241.084 7.4242 240.344 7.52901 239.789 7.71429V21.9488C239.789 24.9058 241.347 26.1747 243.881 26.1747C244.699 26.1747 245.467 26.0418 246.258 25.7517C246.363 25.2502 246.444 24.6681 246.496 24.1666C245.783 24.4304 244.937 24.5895 244.198 24.5895C242.562 24.5914 241.638 23.7455 241.638 21.7392ZM47.4535 19.1996C47.4535 23.6369 49.7779 26.1709 53.2645 26.1709C55.1135 26.1709 56.2495 25.4317 56.9888 24.2695L57.1478 25.8546H59.8147V12.6513C58.282 12.1235 56.7249 11.912 54.8235 11.912C49.9351 11.912 47.4535 14.5527 47.4535 19.1996ZM56.9083 22.8453C56.1429 23.4273 55.2183 23.796 54.0823 23.796C51.4941 23.796 50.4105 21.8946 50.4105 19.2015C50.4105 16.2427 51.8104 14.3955 54.8216 14.3955C55.6394 14.3955 56.3001 14.4479 56.9083 14.5546V22.8453ZM249.983 7.63568C249.269 7.63568 248.742 8.16344 248.742 8.87648C248.742 9.58952 249.269 10.0911 249.983 10.0911C250.696 10.0911 251.197 9.58952 251.197 8.87648C251.197 8.16344 250.696 7.63568 249.983 7.63568ZM68.2645 11.912C66.8646 11.912 64.8303 12.2021 62.9832 12.6513V25.8565H65.8877V14.6051C66.6794 14.4722 67.4991 14.3936 68.1859 14.3936C71.0905 14.3936 71.7773 15.3968 71.7773 17.4835V25.8546H74.6818V16.9819C74.6818 13.7854 73.1248 11.912 68.2645 11.912ZM249.058 25.8584H250.907V12.2321H249.058V25.8584ZM202.157 12.6532V25.8584H204.006V13.8415C204.878 13.6563 205.828 13.5515 206.594 13.5515C207.333 13.5515 208.02 13.5777 208.628 13.6563C208.733 13.3138 208.813 12.6269 208.813 12.0711C208.233 11.9925 207.414 11.9663 206.541 11.9663C205.115 11.9663 203.319 12.2583 202.157 12.6532ZM216.232 11.9139C214.754 11.9139 213.037 12.1778 211.267 12.6532V25.8584H213.116V13.922C214.119 13.6843 215.229 13.5515 216.18 13.5515C219.429 13.5515 220.353 14.8185 220.353 17.2757V25.8584H222.202V16.9314C222.2 13.7367 220.696 11.9139 216.232 11.9139ZM136.75 11.912C132.129 11.912 130.306 15.0281 130.306 18.9638C130.306 23.4797 132.657 26.1728 137.515 26.1728C139.074 26.1728 140.474 25.9351 141.794 25.3269C141.979 24.4548 142.136 23.4517 142.243 22.6862C140.79 23.3468 139.179 23.6893 137.594 23.6893C135.006 23.6893 133.632 22.5533 133.263 20.2027H142.533C142.638 19.4373 142.692 18.7767 142.692 17.957C142.692 14.6313 140.895 11.912 136.75 11.912ZM133.211 17.7736C133.449 15.5278 134.532 14.3394 136.591 14.3394C138.599 14.3394 139.759 15.6064 139.759 17.7736H133.211ZM260.203 11.9139C256.11 11.9139 253.681 14.6613 253.681 19.1229C253.681 23.1896 255.82 26.1747 260.046 26.1747C264.219 26.1747 266.596 23.4273 266.596 18.9114C266.594 14.8989 264.481 11.9139 260.203 11.9139ZM260.15 24.5109C257.139 24.5109 255.556 22.5309 255.556 18.9919C255.556 15.743 257.06 13.5777 260.15 13.5777C263.135 13.5777 264.719 15.5839 264.719 19.0443C264.719 22.3718 263.214 24.5109 260.15 24.5109ZM193.6 11.9139C189.269 11.9139 187.499 15.0299 187.499 18.9657C187.499 23.5078 189.823 26.1747 194.233 26.1747C195.737 26.1747 197.111 25.937 198.432 25.1716C198.565 24.5914 198.67 23.8784 198.722 23.4011C197.296 24.2208 195.711 24.5371 194.285 24.5371C191.274 24.5371 189.61 22.8472 189.372 19.6787H199.143C199.222 19.151 199.248 18.5951 199.248 18.0412C199.252 14.6351 197.562 11.9139 193.6 11.9139ZM197.403 18.015H189.374C189.586 15.2676 190.879 13.5253 193.52 13.5253C196.134 13.5253 197.401 15.2938 197.401 17.9083V18.015H197.403ZM224.921 19.151C224.921 23.6669 227.246 26.1765 230.996 26.1765C232.475 26.1765 233.689 25.6226 234.588 24.8291L234.64 25.8584H236.356V12.6532C234.956 12.1254 233.583 11.9139 231.945 11.9139C227.218 11.9139 224.921 14.5022 224.921 19.151ZM234.507 23.2963C233.635 24.1422 232.527 24.6438 231.153 24.6438C228.275 24.6438 226.797 22.5571 226.797 19.151C226.797 15.612 228.408 13.5515 231.947 13.5515C232.898 13.5515 233.716 13.6563 234.509 13.8677V23.2963H234.507ZM159.191 25.8584H161.04V7.4242C160.46 7.4242 159.666 7.58328 159.191 7.71429V25.8584ZM274.331 11.9139C272.852 11.9139 271.136 12.1778 269.366 12.6532V25.8584H271.215V13.922C272.218 13.6843 273.328 13.5515 274.278 13.5515C277.527 13.5515 278.452 14.8185 278.452 17.2757V25.8584H280.301V16.9314C280.299 13.7367 278.794 11.9139 274.331 11.9139ZM145.201 12.6513V25.8565H148.106V14.5527C148.819 14.4479 149.532 14.3936 150.245 14.3936C151.065 14.3936 151.75 14.4198 152.437 14.5003C152.596 13.9464 152.701 12.889 152.701 12.0168C152.066 11.9382 151.063 11.912 150.165 11.912C148.529 11.912 146.442 12.2283 145.201 12.6513ZM181.638 21.7392V13.9744H186.232C186.337 13.4729 186.391 12.9451 186.417 12.3107H181.638V7.4242C181.084 7.4242 180.344 7.52901 179.789 7.71429V21.9488C179.789 24.9058 181.347 26.1747 183.881 26.1747C184.699 26.1747 185.467 26.0418 186.258 25.7517C186.363 25.2502 186.444 24.6681 186.496 24.1666C185.783 24.4304 184.937 24.5895 184.198 24.5895C182.562 24.5914 181.638 23.7455 181.638 21.7392ZM170.545 11.9139C169.067 11.9139 167.351 12.1778 165.58 12.6532V25.8584H167.429V13.922C168.432 13.6843 169.542 13.5515 170.493 13.5515C173.742 13.5515 174.666 14.8185 174.666 17.2757V25.8584H176.515V16.9314C176.515 13.7367 175.009 11.9139 170.545 11.9139Z" fill="#EC0000"/>
</svg>
